<svg xmlns="http://www.w3.org/2000/svg" aria-hidden="true" style="width:0;height:0;position:absolute;overflow:hidden"><defs><symbol id="burger-icon" viewBox="0 0 40 32"><path d="M3.158 0h33.684a3.158 3.158 0 0 1 0 6.316H3.158a3.158 3.158 0 0 1 0-6.316zM11.2 12.8h25.6a3.2 3.2 0 0 1 0 6.4H11.2a3.2 3.2 0 0 1 0-6.4zM3.158 25.263h33.684a3.158 3.158 0 0 1 0 6.316H3.158a3.158 3.158 0 0 1 0-6.316z"/></symbol><symbol id="close-icon" viewBox="0 0 32 32"><path d="M6.786 2.127 29.47 24.811a3.006 3.006 0 1 1-4.253 4.253L2.533 6.38a3.006 3.006 0 0 1 0-4.253 3.006 3.006 0 0 1 4.253 0z"/><path d="M2.531 24.811 25.215 2.127a3.008 3.008 0 0 1 4.253 4.253L6.784 29.064a3.006 3.006 0 0 1-4.253 0 3.006 3.006 0 0 1 0-4.253z"/></symbol><symbol id="phone-icon" viewBox="0 0 29 32"><path fill="#0EB5A1" d="M21.89 13.024c-1.995 5.96-7.494 10.094-9.994 11.417L9.34 20.27.508 24.054l1.686 7.782c21.654-1.99 26.283-21.208 25.89-30.569L21.043.151 18.22 9.933l3.67 3.09z" style="fill:var(--color1,#0eb5a1)"/></symbol><symbol id="eco" viewBox="0 0 34 42"><path d="m5.49 34.65.515.093c.127.022 1.401.242 3.155.242 2.624 0 6.322-.493 8.85-2.877 4.215-3.978 3.365-11.512 3.326-11.83l-.062-.52-.514-.092c-.316-.056-7.788-1.343-12.004 2.635C4.54 26.279 5.39 33.812 5.428 34.13l.063.52Zm11.549-3.57c-2.682 2.53-7.116 2.59-9.372 2.428L14 27.535l4.706 1.22c-.416.858-.958 1.657-1.666 2.325Zm2.2-3.646-4.026-1.045 4.795-4.524c.018 1.366-.09 3.52-.77 5.569Zm-.26-6.542-7.917 7.47-1.05-5.289c2.654-2.238 6.759-2.326 8.967-2.18ZM8.827 24.36l1.02 5.148-3.091 2.917c-.016-2.003.25-5.543 2.07-8.065Z"/><path d="M28.413 6.832c0-1.824-.71-3.54-2-4.83A6.784 6.784 0 0 0 21.58 0c-.569 0-1.134.07-1.68.21l.348 1.37c.433-.11.88-.166 1.332-.166A5.38 5.38 0 0 1 25.413 3 5.383 5.383 0 0 1 27 6.832v5.388h-6.785V6.833A6.84 6.84 0 0 0 13.382 0 6.84 6.84 0 0 0 6.55 6.833v5.387H0v26.246A3.538 3.538 0 0 0 3.534 42h26.293a3.538 3.538 0 0 0 3.534-3.534V12.22h-4.948V6.832Zm-20.45 0a5.425 5.425 0 0 1 5.42-5.418A5.425 5.425 0 0 1 18.8 6.833v5.387h-2.639V6.832c0-.665.12-1.314.354-1.926l-1.32-.506a6.776 6.776 0 0 0-.447 2.432v5.388H7.963V6.833Zm17.388 31.634c0 1.17-.952 2.12-2.12 2.12H3.533c-1.17 0-2.12-.95-2.12-2.12V13.634H25.35v24.832Zm4.476 2.12h-2.55l2.079-3.621 1.806 3.147a2.11 2.11 0 0 1-1.335.474Zm-1.178-26.952v4.005h1.414v-4.005h1.884v24.832c0 .055-.002.109-.006.163l-1.878-3.273V19.524h-1.414v15.832l-1.89 3.293a3.6 3.6 0 0 0 .005-.183V13.634h1.885Z"/></symbol><symbol id="serve" viewBox="0 0 44 44"><path d="m39.618 29.885-9.91 5.87-3.774-2.385h4.746a2.739 2.739 0 0 0 0-5.477h-8.152a7.565 7.565 0 0 0-2.744.498l-6.339 2.878v-.637a.747.747 0 0 0-.747-.747H7.221a.747.747 0 0 0-.747.746v12.45a.747.747 0 0 0 .747.747h5.477a.747.747 0 0 0 .747-.747v-.747h15.482a4.64 4.64 0 0 0 2.729-.882l10.587-7.584a2.405 2.405 0 0 0-2.625-3.983ZM11.951 42.334H7.968V31.378h3.983v10.956Zm29.425-9.656-10.592 7.564c-.54.39-1.19.6-1.857.598H13.445v-7.933l6.912-3.122a6.04 6.04 0 0 1 2.171-.398h8.152a1.245 1.245 0 0 1 0 2.49h-7.325a.747.747 0 0 0-.399 1.379l6.34 3.983a.746.746 0 0 0 .781 0l10.308-6.12a.912.912 0 0 1 .996 1.524l-.005.035ZM43.074 23.909h-1.743A19.196 19.196 0 0 0 24.575 5.395a3.237 3.237 0 1 0-4.826 0A19.192 19.192 0 0 0 2.988 23.909H.747a.747.747 0 1 0 0 1.494h42.327a.746.746 0 1 0 0-1.494ZM22.159 1.5a1.743 1.743 0 1 1 0 3.486 1.743 1.743 0 0 1 0-3.486Zm0 5.23a17.693 17.693 0 0 1 17.678 17.179H4.482a17.693 17.693 0 0 1 17.677-17.18Z"/><path d="M18.145 10.27a14.67 14.67 0 0 0-9.362 8.052.747.747 0 1 0 1.36.607 13.18 13.18 0 0 1 8.41-7.22.746.746 0 0 0 .383-1.184.747.747 0 0 0-.791-.255Z"/></symbol><symbol id="time" viewBox="0 0 46 45"><path d="M41.794 9.757h2.048a.879.879 0 1 0 0-1.757h-3.837a.879.879 0 0 0-.88.879v3.837a.879.879 0 1 0 1.758 0v-1.09c4.652 8 3.416 18.419-3.262 25.096A20.718 20.718 0 0 1 15.207 41.3a.879.879 0 1 0-.656 1.63 22.472 22.472 0 0 0 24.313-4.964 22.501 22.501 0 0 0 2.93-28.208ZM5.565 30.999a.879.879 0 0 0-.879.879v1.25C-.102 25.101 1.1 14.567 7.831 7.834a20.698 20.698 0 0 1 22.535-4.528.879.879 0 0 0 .666-1.626A22.49 22.49 0 0 0 18.238.407a22.38 22.38 0 0 0-11.65 6.184 22.5 22.5 0 0 0-2.853 28.325H1.649a.879.879 0 1 0 0 1.758h3.917a.879.879 0 0 0 .879-.879v-3.918A.879.879 0 0 0 5.565 31ZM20.638 18.945a.517.517 0 0 0-.234.692l2.904 5.872a.517.517 0 1 0 .927-.459L21.33 19.18a.517.517 0 0 0-.693-.234ZM26.706 23.828l-2.904-5.872a.517.517 0 0 0-.927.459l2.904 5.871a.517.517 0 0 0 .927-.458Z"/><path d="M34.511 11.614a.344.344 0 0 0-.086-.173.501.501 0 0 0-.064-.076.502.502 0 0 0-.086-.057.475.475 0 0 0-.063-.042l-.042-.014c-.31-.074-6.913-1.862-12.58-.232a27.47 27.47 0 0 0-1.113-3.334l-.01-.018-.016-.034a.528.528 0 0 0-.042-.084.5.5 0 0 0-.107-.093l-.01-.018a.506.506 0 0 0-.127-.056.517.517 0 0 0-.127-.015l-.018.01a.53.53 0 0 0-.127.024l-.126.062a29.42 29.42 0 0 0-4.168 2.996c-2.034 1.737-4.696 4.503-5.816 7.823-1.926 5.694 2.887 9.725 3.167 9.948l.01.022c.028.02.056.036.087.05l.047.019.084.02.052.005.025-.012a10.839 10.839 0 0 0 4.257-1.09 8.69 8.69 0 0 0 2.612-1.95l1.269 2.565a5.347 5.347 0 0 0 2.273 2.402l1.012.53a4.368 4.368 0 0 1 1.812 1.93l2.163 4.373a.517.517 0 0 0 .927-.458l-2.163-4.373a5.347 5.347 0 0 0-2.273-2.402l-1.006-.518A4.369 4.369 0 0 1 22.32 27.4l-3.462-7a.517.517 0 1 0-.927.46l1.693 3.423c-1.726 2.139-4.34 2.758-5.617 2.936l6.02-17.784a28.392 28.392 0 0 1 1.453 6.827.517.517 0 1 0 1.032-.076 26.704 26.704 0 0 0-.653-4.166c4.466-1.297 9.72-.307 11.443.087-.646 1.393-2.512 5.123-5.41 7.898l-1.618-3.272a.517.517 0 1 0-.927.458l3.462 7c.416.807.57 1.725.44 2.624l-.199 1.114a5.35 5.35 0 0 0 .53 3.264l2.163 4.373a.517.517 0 1 0 .927-.459l-2.163-4.372a4.371 4.371 0 0 1-.434-2.612l.2-1.114a5.351 5.351 0 0 0-.537-3.277l-1.365-2.76c3.915-3.609 6.03-8.805 6.117-9.025l.016-.038a.49.49 0 0 0 .005-.076.503.503 0 0 0 .006-.103.5.5 0 0 0-.004-.117Zm-15.47-2.506-3.904 11.546-2.655-5.368c2.032-2.89 4.936-5.083 6.56-6.178Zm-6.013 17.789c-1.174-1.162-3.663-4.234-2.284-8.313a12.12 12.12 0 0 1 1.077-2.301l2.849 5.76-1.642 4.854Z"/></symbol><symbol id="night" viewBox="0 0 41 41"><path d="M39.288 20.699a.677.677 0 0 0-1.013-.788c-1.192.785-2.512 1.151-4.155 1.151-4.392 0-7.966-3.66-7.966-8.158 0-3.392 2.19-6.592 5.325-7.782a.678.678 0 0 0-.033-1.28c-1.243-.399-2.675-.452-3.912-.452-6.955 0-12.614 5.778-12.614 12.88 0 1.069.13 2.134.386 3.172a7.555 7.555 0 0 0-2.595-.46c-4.163 0-7.55 3.345-7.55 7.457 0 .563.067 1.124.197 1.672a6.399 6.399 0 0 0-3.534 1.825 6.244 6.244 0 0 0-1.818 4.412c0 3.489 2.874 6.327 6.405 6.327h21.191c3.848 0 6.978-3.092 6.978-6.892a6.852 6.852 0 0 0-2.667-5.414c3.427-1.282 6.13-4.062 7.375-7.67Zm-6.064 13.084c0 3.052-2.522 5.536-5.622 5.536H6.412c-2.785 0-5.05-2.23-5.05-4.971a4.896 4.896 0 0 1 1.427-3.46 5.064 5.064 0 0 1 3.472-1.504.68.68 0 0 0 .618-.907 6 6 0 0 1-.362-2.038c0-3.364 2.779-6.102 6.194-6.102 2.574 0 4.906 1.602 5.803 3.985a.678.678 0 0 0 .916.378 4.496 4.496 0 0 1 1.872-.408c2.126 0 3.971 1.486 4.389 3.535a.678.678 0 0 0 .796.53c.367-.074.74-.11 1.115-.11 3.1 0 5.622 2.483 5.622 5.536Zm-2.884-6.339c-1.1-.464-2.3-.64-3.486-.513-.766-2.35-3.005-3.995-5.552-3.995-.607 0-1.21.094-1.789.28a7.507 7.507 0 0 0-2.528-2.912 11.707 11.707 0 0 1-.709-4.034c0-6.355 5.05-11.525 11.259-11.525.522 0 1.08.01 1.634.054-2.644 1.767-4.37 4.861-4.37 8.105 0 5.246 4.181 9.514 9.32 9.514 1.175 0 2.214-.163 3.169-.505-1.459 2.755-3.954 4.762-6.948 5.531Z"/><path d="M39.288 20.699a.677.677 0 0 0-1.013-.788c-1.192.785-2.512 1.151-4.155 1.151-4.392 0-7.966-3.66-7.966-8.158 0-3.392 2.19-6.592 5.325-7.782a.678.678 0 0 0-.033-1.28c-1.243-.399-2.675-.452-3.912-.452-6.955 0-12.614 5.778-12.614 12.88 0 1.069.13 2.134.386 3.172a7.555 7.555 0 0 0-2.595-.46c-4.163 0-7.55 3.345-7.55 7.457 0 .563.067 1.124.197 1.672a6.399 6.399 0 0 0-3.534 1.825 6.244 6.244 0 0 0-1.818 4.412c0 3.489 2.874 6.327 6.405 6.327h21.191c3.848 0 6.978-3.092 6.978-6.892a6.852 6.852 0 0 0-2.667-5.414c3.427-1.282 6.13-4.062 7.375-7.67Zm-6.064 13.084c0 3.052-2.522 5.536-5.622 5.536H6.412c-2.785 0-5.05-2.23-5.05-4.971a4.896 4.896 0 0 1 1.427-3.46 5.064 5.064 0 0 1 3.472-1.504.68.68 0 0 0 .618-.907 6 6 0 0 1-.362-2.038c0-3.364 2.779-6.102 6.194-6.102 2.574 0 4.906 1.602 5.803 3.985a.678.678 0 0 0 .916.378 4.496 4.496 0 0 1 1.872-.408c2.126 0 3.971 1.486 4.389 3.535a.678.678 0 0 0 .796.53c.367-.074.74-.11 1.115-.11 3.1 0 5.622 2.483 5.622 5.536Zm-2.884-6.339c-1.1-.464-2.3-.64-3.486-.513-.766-2.35-3.005-3.995-5.552-3.995-.607 0-1.21.094-1.789.28a7.507 7.507 0 0 0-2.528-2.912 11.707 11.707 0 0 1-.709-4.034c0-6.355 5.05-11.525 11.259-11.525.522 0 1.08.01 1.634.054-2.644 1.767-4.37 4.861-4.37 8.105 0 5.246 4.181 9.514 9.32 9.514 1.175 0 2.214-.163 3.169-.505-1.459 2.755-3.954 4.762-6.948 5.531Z" fill-opacity=".2"/><path d="M39.288 20.699a.677.677 0 0 0-1.013-.788c-1.192.785-2.512 1.151-4.155 1.151-4.392 0-7.966-3.66-7.966-8.158 0-3.392 2.19-6.592 5.325-7.782a.678.678 0 0 0-.033-1.28c-1.243-.399-2.675-.452-3.912-.452-6.955 0-12.614 5.778-12.614 12.88 0 1.069.13 2.134.386 3.172a7.555 7.555 0 0 0-2.595-.46c-4.163 0-7.55 3.345-7.55 7.457 0 .563.067 1.124.197 1.672a6.399 6.399 0 0 0-3.534 1.825 6.244 6.244 0 0 0-1.818 4.412c0 3.489 2.874 6.327 6.405 6.327h21.191c3.848 0 6.978-3.092 6.978-6.892a6.852 6.852 0 0 0-2.667-5.414c3.427-1.282 6.13-4.062 7.375-7.67Zm-6.064 13.084c0 3.052-2.522 5.536-5.622 5.536H6.412c-2.785 0-5.05-2.23-5.05-4.971a4.896 4.896 0 0 1 1.427-3.46 5.064 5.064 0 0 1 3.472-1.504.68.68 0 0 0 .618-.907 6 6 0 0 1-.362-2.038c0-3.364 2.779-6.102 6.194-6.102 2.574 0 4.906 1.602 5.803 3.985a.678.678 0 0 0 .916.378 4.496 4.496 0 0 1 1.872-.408c2.126 0 3.971 1.486 4.389 3.535a.678.678 0 0 0 .796.53c.367-.074.74-.11 1.115-.11 3.1 0 5.622 2.483 5.622 5.536Zm-2.884-6.339c-1.1-.464-2.3-.64-3.486-.513-.766-2.35-3.005-3.995-5.552-3.995-.607 0-1.21.094-1.789.28a7.507 7.507 0 0 0-2.528-2.912 11.707 11.707 0 0 1-.709-4.034c0-6.355 5.05-11.525 11.259-11.525.522 0 1.08.01 1.634.054-2.644 1.767-4.37 4.861-4.37 8.105 0 5.246 4.181 9.514 9.32 9.514 1.175 0 2.214-.163 3.169-.505-1.459 2.755-3.954 4.762-6.948 5.531Z" fill-opacity=".2"/><path d="M35.258 9.49a.678.678 0 0 0-.678.679v1.093l-1.141-.38a.677.677 0 1 0-.43 1.286l1.193.397-.864 1.295a.678.678 0 1 0 1.128.752l.792-1.188.792 1.188a.678.678 0 0 0 1.128-.752l-.864-1.295 1.192-.397a.678.678 0 0 0-.429-1.287l-1.141.38V10.17a.678.678 0 0 0-.678-.678ZM2.04 17.363.9 16.983a.677.677 0 1 0-.43 1.286l1.193.397-.864 1.295a.678.678 0 1 0 1.128.752l.792-1.187.792 1.188a.678.678 0 1 0 1.128-.753l-.864-1.295 1.192-.397a.678.678 0 0 0-.429-1.286l-1.141.38V16.27a.678.678 0 1 0-1.356 0v1.093ZM5.054 6.665a.678.678 0 0 0 .94-.188l.791-1.187.792 1.187a.678.678 0 0 0 1.128-.752L7.842 4.43l1.192-.397a.678.678 0 0 0-.43-1.287l-1.14.38V2.035a.678.678 0 0 0-1.357 0v1.093l-1.14-.38a.678.678 0 0 0-.43 1.286l1.192.397-.863 1.295a.678.678 0 0 0 .188.94ZM38.647 4.067a.678.678 0 1 0 0-1.355.678.678 0 0 0 0 1.355ZM10.853 14.236a.678.678 0 1 0 0-1.356.678.678 0 0 0 0 1.356ZM21.022 1.356a.678.678 0 1 0 0-1.356.678.678 0 0 0 0 1.356ZM40.003 27.794a.678.678 0 1 0 0-1.355.678.678 0 0 0 0 1.355Z"/></symbol><symbol id="truck" viewBox="0 0 66 46"><path d="m62.35 22.455 3.339 5.107c.1.153.154.333.154.518v11.65a.946.946 0 0 1-.947.947H61.29l-.017.078c-.585 2.517-2.843 4.4-5.535 4.4-2.691 0-4.948-1.883-5.534-4.4l-.018-.078H29.888l-.018.078c-.585 2.517-2.841 4.4-5.534 4.4-2.692 0-4.95-1.883-5.534-4.4l-.018-.078H9.42a.947.947 0 0 1-.947-.947v-1.033a5.15 5.15 0 0 1 3.08-4.707l.06-.026v-4.801H1.047a.946.946 0 1 1 0-1.894h10.567v-2.293H7.327a.946.946 0 1 1 0-1.893h4.287V20.79H1.047a.946.946 0 1 1 0-1.894h8.973l-.274-.184C7.015 16.89 5.21 13.782 5.21 10.26 5.211 4.658 9.77.1 15.371.1c4.947 0 9.075 3.558 9.973 8.248l.016.08h16.243c2.977 0 5.399 2.422 5.399 5.4v5.068h8.732c2.69 0 5.161 1.33 6.617 3.559Zm-48.743 6.708h-.1V33.551h.1l.018-.001H45.11V13.828a3.51 3.51 0 0 0-3.506-3.506H25.524l-.001.099a10.155 10.155 0 0 1-4.527 8.291l-.274.184h6.492a.947.947 0 1 1 0 1.894H13.507v2.293h7.428a.946.946 0 0 1 0 1.893h-7.428v2.293H15.7a.946.946 0 1 1 0 1.894h-2.093Zm31.402 9.62h.1V35.443H28.346l.156.168a5.663 5.663 0 0 1 1.462 3.086l.012.086h15.033ZM20.17 35.611l.155-.168H13.62a3.258 3.258 0 0 0-3.253 3.24v.1H18.697l.012-.086a5.662 5.662 0 0 1 1.461-3.086Zm43.68 3.172h.1V28.361l-.017-.024-3.167-4.847-.083.055.083-.055a5.982 5.982 0 0 0-5.032-2.7h-8.732V38.783h3.095l.012-.086c.38-2.77 2.756-4.915 5.628-4.915 2.873 0 5.25 2.144 5.628 4.915l.012.086h2.472ZM15.37 1.993c-4.558 0-8.266 3.709-8.266 8.267s3.708 8.266 8.266 8.266c4.559 0 8.266-3.708 8.266-8.266s-3.707-8.267-8.266-8.267Zm5.172 37.475a3.798 3.798 0 0 0 3.793 3.793 3.797 3.797 0 0 0 3.793-3.793 3.798 3.798 0 0 0-3.793-3.793 3.798 3.798 0 0 0-3.793 3.794Zm31.401 0a3.798 3.798 0 0 0 3.793 3.793 3.797 3.797 0 0 0 3.793-3.793 3.798 3.798 0 0 0-3.793-3.793 3.798 3.798 0 0 0-3.793 3.794Z" stroke="#E5E5E5" stroke-width=".2"/><path d="m14.735 9.977.019-.026V5.68a.946.946 0 1 1 1.893 0v4.58a.947.947 0 0 1-.181.557l-2.338 3.206a.944.944 0 0 1-1.323.207.945.945 0 0 1-.207-1.322l2.137-2.93ZM61.919 28.687a1.697 1.697 0 0 1-.005 1.712 1.702 1.702 0 0 1-1.487.857h-7.045a.946.946 0 0 1-.947-.946v-7.327c0-.524.424-.947.947-.947h2.003c1.686 0 3.254.91 4.09 2.373l2.444 4.278Zm-7.59.576v.1H60.124l-.085-.15-2.208-3.864a2.821 2.821 0 0 0-2.446-1.42h-1.056v5.334Z" stroke="#E5E5E5" stroke-width=".2"/></symbol><symbol id="clock" viewBox="0 0 45 45"><path d="M22.5 44.75C10.231 44.75.25 34.769.25 22.5S10.231.25 22.5.25s22.25 9.981 22.25 22.25-9.981 22.25-22.25 22.25Zm0-42.188c-10.994 0-19.938 8.944-19.938 19.938 0 10.994 8.944 19.938 19.938 19.938 10.994 0 19.938-8.944 19.938-19.938 0-10.994-8.944-19.938-19.938-19.938Z" stroke="#E5E5E5" stroke-width=".5"/><path d="m31.527 34.099-9.844-9.845a1.156 1.156 0 0 1-.34-.816V10.312a1.157 1.157 0 0 1 2.313 0V22.958l.074.073 9.43 9.431a1.157 1.157 0 0 1 0 1.636c-.224.227-.52.34-.816.34-.297 0-.592-.113-.817-.34Z" stroke="#E5E5E5" stroke-width=".5"/></symbol><symbol id="icon-hero_table" viewBox="0 0 67 32"><path d="M63.729 2.322 15.748 2.08c-.509-.003-.924.505-.927 1.134s.407 1.14.915 1.143l47.797.242-.022 4.375-59.2-.299.022-4.375 7.719.039c.509.003.924-.505.927-1.134s-.407-1.14-.915-1.143l-7.903-.04c-.914-.005-1.663.911-1.668 2.04l-.024 4.83c-.006 1.13.733 2.053 1.648 2.057l1.299.007L5.33 28.05c-.006 1.13.733 2.053 1.648 2.057l3.162.016c.914.005 1.663-.911 1.668-2.041l.057-11.198.012-2.276.018-3.619 43.618.22-.018 3.619-.012 2.276-.058 11.426c-.006 1.13.733 2.053 1.648 2.057l3.162.016c.914.005 1.663-.911 1.669-2.041l.087-17.322 1.694.009c.914.005 1.663-.911 1.668-2.04l.025-4.83c.006-1.13-.734-2.053-1.648-2.057zM9.966 27.846l-2.794-.014.085-16.866 2.794.014-.085 16.866zm50.095.48-2.794-.014.086-17.094 2.794.014-.086 17.094z"/></symbol><symbol id="icon-hero_meat" viewBox="0 0 38 32"><path d="m33.715 14.166-.034-.194-.079.181a7.595 7.595 0 0 1-.877 1.511.578.578 0 0 1-.925-.691 6.44 6.44 0 0 0 1.187-4.947c-.279-1.587-1.199-2.847-2.742-3.775-1.541-.927-3.704-1.522-6.472-1.783-5.117-.482-10.677.347-12.829.725-5.045.887-8.427 5.713-7.54 10.757s5.713 8.427 10.757 7.54c2.391-.42 4.125-1.53 5.95-2.698l.004-.002c2.109-1.35 4.282-2.739 7.665-3.334.197-.035.393-.079.585-.131a.578.578 0 0 1 .305 1.113 7.67 7.67 0 0 1-.691.155c-3.157.555-5.237 1.886-7.241 3.168l-.002.001c-1.938 1.24-3.759 2.405-6.376 2.865-3.882.683-7.649-.884-9.96-3.76l-.104.051c1.143 4.718 5.787 7.807 10.634 6.955 2.391-.42 4.125-1.53 5.95-2.698l.004-.002c2.109-1.35 4.282-2.739 7.665-3.334a6.422 6.422 0 0 0 5.207-7.429l-.043-.243zM23.881 3.319c2.732.257 4.957.848 6.616 1.752 2.051 1.117 3.269 2.717 3.627 4.756l.771 4.383c.723 4.111-2.034 8.043-6.144 8.766-3.157.555-5.237 1.886-7.241 3.168l-.002.001c-1.938 1.24-3.759 2.405-6.376 2.865-5.671.997-11.097-2.806-12.094-8.477l-.771-4.383C1.27 10.479 5.073 5.053 10.744 4.056c2.2-.387 7.882-1.232 13.137-.737z"/><path d="M30.585 16.214zm.001 0a.577.577 0 0 1 .671.938m-.671-.938.672.939m-.001-.001a.575.575 0 0 1-.804-.122l.804.122zM9.601 12.324c-.273-1.552.898-3.069 2.624-3.373s3.344.723 3.617 2.275c.273 1.552-.898 3.069-2.624 3.373s-3.344-.723-3.617-2.275zm1.137-.2c.165.939 1.196 1.529 2.28 1.338s1.851-1.097 1.686-2.036c-.165-.939-1.196-1.529-2.28-1.338s-1.851 1.097-1.686 2.035z"/></symbol><symbol id="icon-hero_bottle" viewBox="0 0 21 32"><path d="M5.63 11.775a.353.353 0 0 0 .205-.449l-.041-.109a.353.353 0 0 0-.449-.205.353.353 0 0 0-.205.449l.041.109a.353.353 0 0 0 .449.205zM8.026 18.202a.353.353 0 0 0 .205-.449l-1.868-5.011a.353.353 0 0 0-.449-.205.353.353 0 0 0-.205.449l1.868 5.011a.353.353 0 0 0 .449.205z"/><path d="m12.273 31.259 7.625-2.842a1.515 1.515 0 0 0 .888-1.944L13.64 7.301a2.446 2.446 0 0 0-3.03-1.473l-.366-.983.218-.081a.348.348 0 0 0 .204-.449l-.65-1.743a1.512 1.512 0 0 0-1.944-.888L3.715 3.308a1.512 1.512 0 0 0-.888 1.944l.65 1.743a.353.353 0 0 0 .449.205l.218-.081.366.983a2.444 2.444 0 0 0-1.327 3.097l7.146 19.172a1.512 1.512 0 0 0 1.944.888zM3.481 5.009a.813.813 0 0 1 .479-1.046l4.357-1.624a.813.813 0 0 1 1.046.479l.528 1.416-5.882 2.192-.528-1.416zm6.109.08.365.98-4.793 1.787-.365-.98L9.59 5.089zm-5.753 5.866a1.745 1.745 0 0 1 1.025-2.243l5.882-2.193a1.745 1.745 0 0 1 2.243 1.025l1.816 4.873-4.814 1.795a.353.353 0 0 0-.205.449l.555 1.489a.353.353 0 0 0 .449.205.353.353 0 0 0 .205-.449l-.433-1.162 4.487-1.673 3.009 8.074-4.487 1.673-1.561-4.189a.353.353 0 0 0-.449-.205.353.353 0 0 0-.205.449l1.683 4.515a.353.353 0 0 0 .449.205l4.814-1.794 1.833 4.917a.813.813 0 0 1-.479 1.046l-7.625 2.842a.813.813 0 0 1-1.046-.479L3.837 10.954z"/></symbol><symbol id="icon-hero_carrot" viewBox="0 0 24 32"><path d="M11.671 3.637a2.724 2.724 0 0 0-1.636.683l-.099.088-.083-.103c-.777-.955-2.133-1.301-3.298-.756S4.786 5.356 5.021 6.565l.025.13-.131.019a2.729 2.729 0 0 0-1.574.818 2.733 2.733 0 0 0-.764 1.96c.015.734.316 1.417.846 1.925l8.247-7.781zm0 0c.733-.05 1.44.188 1.994.67l.083-.095m-2.077-.575 2.077.575m0 0-.083.095c.554.482.885 1.151.935 1.883.015.228-.041.686-.689 2.304a55.235 55.235 0 0 1-.669 1.589l-.057.129.135.042a4.866 4.866 0 0 1 2.962 2.585c.635 1.358 1.727 4.88 2.376 8.193.362 1.848.541 3.38.534 4.554-.005.793-.097 1.413-.272 1.873-.175.457-.429.749-.759.904s-.717.162-1.18.003c-.465-.16-1-.487-1.612-.992-.906-.747-1.967-1.866-3.153-3.329-2.127-2.622-4.13-5.718-4.765-7.075a4.862 4.862 0 0 1-.086-3.93l.054-.13m6.329-8.698L7.419 12.91m-.001 0-.135-.039a54.755 54.755 0 0 1-1.649-.505l-.039.12m1.823.424-1.823-.424m0 0 .039-.12m-.039.12.039-.12m-1.637-1.545a1.91 1.91 0 0 1-.591-1.345l.591 1.345zm0 0 .006.005m-.006-.005.006.005m0 0c.07.06.212.132.398.213.192.084.449.183.765.296a44.08 44.08 0 0 0 2.58.81l.086.025.052-.073c.171-.242.364-.47.579-.68l.086-.084-.08-.09c-1.445-1.636-2.532-2.896-3.031-3.67l-.037-.058h-.068a1.91 1.91 0 0 0-1.393.593m.063 2.718-.063-2.72m-.001-.001c-.355.37-.545.857-.534 1.37l.534-1.37zm1.695 4.261c-1.657-.54-2.045-.79-2.21-.948l2.21.948zm4.714-2.093.102-.033-.016-.106a99.918 99.918 0 0 0-.468-2.847 26.143 26.143 0 0 0-.256-1.246c-.084-.352-.168-.641-.249-.816A1.922 1.922 0 0 0 5.98 6.853c.079.17.239.408.448.687.21.281.475.611.77.965.589.708 1.301 1.517 1.936 2.235l.071.08.091-.056a4.99 4.99 0 0 1 1.055-.492zm3.497 14.177-.152.071.111.126c1.155 1.314 2.037 2.099 2.681 2.535.322.218.588.351.802.419.21.066.39.075.523.013.149-.07.268-.242.357-.494.091-.257.159-.623.185-1.119.053-.992-.06-2.527-.507-4.81-.635-3.243-1.693-6.675-2.314-8.002-.946-2.022-3.36-2.897-5.381-1.952s-2.897 3.36-1.951 5.381c.62 1.326 2.577 4.339 4.658 6.905l.218.267.062.076 1.87-.875a.413.413 0 1 1 .35.75l-1.514.708zm-.07-18.2-.001-.008c-.035-.507-.267-.975-.653-1.311s-.882-.503-1.394-.468a1.906 1.906 0 0 0-1.348.69l-.044.053.02.065c.286.915.573 2.646.886 4.678l.018.118.119-.012c.295-.029.59-.031.882-.007l.089.008.036-.082c.454-1.022.8-1.87 1.033-2.5.116-.315.204-.576.264-.778.057-.196.092-.351.092-.444z"/><path d="M11.162 14.747a.413.413 0 1 1 .351.749l-1.731.809a.413.413 0 1 1-.351-.75l1.731-.809zM12.654 18.403l2.769-1.295a.413.413 0 1 1 .351.75l-2.769 1.295a.413.413 0 1 1-.351-.749z"/></symbol><symbol id="icon-hero_fish" viewBox="0 0 32 32"><path d="M24.35 12.308c-.481 0-.857.397-.874.873-.017.465.33.874.811.874.46 0 .856-.385.874-.873s-.352-.874-.811-.874zM6.432 9.348c-.437 0-.778.363-.793.782s.3.783.737.783c.415 0 .767-.351.782-.782s-.311-.783-.726-.783z"/><path stroke-width=".384" d="M30.012 18.598v.002a.767.767 0 0 1-.115.486c-.121.194-.265.254-.567.379l-.012.005-.003.001c-3.521 1.537-7.911 1.194-11.618.422a40.553 40.553 0 0 1-6.475-1.944l-.033-.013c-1.052-.426-2.079-.555-3.07-.378s-1.932.658-2.813 1.431c-.972.848-1.622 1.843-1.94 2.371l-.058.096.052.095c1.085 1.979 2.701 3.043 4.817 3.126h.001a8.029 8.029 0 0 0 2.25-.263c.291-.075.529-.153.695-.213.083-.03.149-.056.195-.074l.055-.023.019-.009.007-.004a.623.623 0 0 1 .866.499c.313 2.118-.001 3.694-.895 4.742-1.014 1.178-2.418 1.233-2.632 1.232a.615.615 0 0 1-.334-.097c-.108-.069-1.457-.942-2.914-2.466-1.463-1.53-3.022-3.704-3.555-6.367-.62-3.099.042-6.615 2.444-9.812a.632.632 0 0 1 .977-.068.692.692 0 0 1 .027.889v.001c-1.752 2.35-2.27 4.646-2.342 6.346l-.023.553.361-.431c1.236-1.476 2.615-2.381 4.031-2.772s2.883-.27 4.303.329c.06.025 2.801 1.155 6.336 1.886l.352.073-.127-.334c-1.524-4.007-1.178-7.973 2.164-10.63l.296-.235-.355-.098c-1.542-.428-3.214-.531-4.844-.407-1.363.102-2.959.399-4.26.918h-.001c-.549.222-1.075.512-1.699.925l-.001.001c-.022.015-.042.027-.067.042l-.026.016c-.032.02-.069.043-.106.072a.611.611 0 0 1-.803-.084l-.002-.002c-.287-.3-.218-.807.131-1.046l.2-.135h.001c1.191-.791 2.214-1.268 3.9-1.647l.248-.056-.111-.222c-.469-.936-1.304-1.999-3.33-2.48l-.005-.001c-.625-.131-.685-1.07-.025-1.31 2.778-.983 5.55-1.003 7.794.705 1.267.963 2.014 2.238 2.413 3.108l.039.085.092.019c6.185 1.253 9.361 6.201 10.093 12.764zm-12.141-.276.045.121.18-.073.045-.188-.125-.026c-1.421-3.905-1.081-7.808 2.122-10.488l.127.034.057-.185-.116-.149-.11.088c-1.454-.37-3.019-.458-4.553-.34l2.326 11.205zM9.68 8.927c.617-.408 1.13-.691 1.663-.906l-1.663.906zm4.651-3.353.055.129.141-.019a17.07 17.07 0 0 1 3.315-.121l.399.025-.219-.327c-.928-1.387-2.63-2.88-5.539-2.636l-.522.044.414.304c1.123.823 1.638 1.853 1.956 2.602zM11.092 25.87l-.008-.235-.229.064c-1.758.489-3.616.495-5.249-.211l-.235.297a17.06 17.06 0 0 0 3.532 3.375l.061.042.075-.011c.318-.048.937-.207 1.406-.76l.001-.001c.48-.576.686-1.463.647-2.56zm8.842-7.06.042.088.097.014c2.678.389 5.823.465 8.446-.562l.148-.058-.023-.154c-.637-4.364-2.471-8.178-6.311-10.066l-.093-.046-.092.055c-1.611.972-2.677 2.233-3.152 3.774-.828 2.672.262 5.555.936 6.956z"/></symbol><symbol id="icon-hero_arrow_next" viewBox="0 0 18 32"><path d="M17.414 17.414a2 2 0 0 0 0-2.828L4.686 1.858a2 2 0 1 0-2.828 2.828L13.172 16 1.858 27.314a2 2 0 1 0 2.828 2.828l12.728-12.728zM14 18h2v-4h-2v4z"/></symbol><symbol id="icon-hero_arrow_prev" viewBox="0 0 18 32"><path d="M.586 14.586a2 2 0 0 0 0 2.828l12.728 12.728a2 2 0 1 0 2.828-2.828L4.828 16 16.142 4.686a2 2 0 1 0-2.828-2.828L.586 14.586zM4 14H2v4h2v-4z"/></symbol><symbol id="faq-arrow" fill="none"><path fill="#000" d="M8.707 8.707a1 1 0 0 0 0-1.414L2.343.929A1 1 0 0 0 .93 2.343L6.586 8 .929 13.657a1 1 0 1 0 1.414 1.414l6.364-6.364ZM7 9h1V7H7v2Z"/></symbol><symbol id="icon-instagram" viewBox="0 0 32 32"><path d="M16 2.884c4.272 0 4.779.016 6.467.093 4.336.197 6.361 2.255 6.559 6.559.077 1.687.092 2.193.092 6.465 0 4.273-.016 4.779-.092 6.465-.199 4.3-2.219 6.361-6.559 6.559-1.688.077-2.192.093-6.467.093-4.272 0-4.779-.016-6.465-.093-4.347-.199-6.361-2.265-6.559-6.56-.077-1.687-.093-2.192-.093-6.465 0-4.272.017-4.777.093-6.465.199-4.303 2.219-6.361 6.559-6.559 1.688-.076 2.193-.092 6.465-.092zM16 0c-4.345 0-4.889.019-6.596.096C3.593.363.364 3.587.097 9.403.018 11.111 0 11.655 0 16s.019 4.891.096 6.597c.267 5.811 3.491 9.04 9.307 9.307 1.708.077 2.252.096 6.597.096s4.891-.019 6.597-.096c5.805-.267 9.043-3.491 9.305-9.307.079-1.707.097-2.252.097-6.597s-.019-4.889-.096-6.596c-.261-5.805-3.489-9.04-9.305-9.307C20.89.018 20.345 0 15.999 0zm0 7.784a8.217 8.217 0 1 0 .001 16.433A8.217 8.217 0 0 0 16 7.784zm0 13.549a5.333 5.333 0 1 1 0-10.666 5.333 5.333 0 0 1 0 10.666zM24.541 5.54a1.92 1.92 0 1 0 0 3.841 1.92 1.92 0 0 0 0-3.841z"/></symbol><symbol id="icon-telegram" viewBox="0 0 32 32"><path d="M24.512 30.372a904.93 904.93 0 0 1-7.464-5.416l-4.128 3.897a1.154 1.154 0 0 1-1.081.276 1.17 1.17 0 0 1-.804-.768c-1.009-2.973-2.945-8.82-2.945-8.82S3.947 18.228.791 17.284A1.105 1.105 0 0 1 0 16.265 1.1 1.1 0 0 1 .723 15.2C7.76 12.596 24.978 6.136 30.568 4.067c.363-.135.769-.063 1.063.187s.427.637.347 1.011c-1.055 4.953-3.865 18.736-5.024 24.181a1.546 1.546 0 0 1-.965 1.12 1.585 1.585 0 0 1-1.476-.193zM9.832 18.803l2.239 7.384.497-4.676 13.58-12.248a.37.37 0 0 0 .044-.503.379.379 0 0 0-.501-.085L9.832 18.803z"/></symbol><symbol id="icon-viber" viewBox="0 0 32 32"><path d="M13.333 1.307c-5.781 0-10.667 4.607-10.667 10.06v4.664c0 4.515 1.364 7.454 4.164 8.953v3.068a2.58 2.58 0 0 0 2.584 2.586c.659 0 1.306-.253 1.799-.732l3.948-3.813h4.091c5.559 0 10.081-4.514 10.081-10.063v-4.664c0-5.548-4.523-10.06-10.081-10.06zm0 2.667h5.922c4.088 0 7.414 3.316 7.414 7.393v4.664c0 4.079-3.327 7.396-7.414 7.396h-4.63c-.345 0-.678.134-.927.375l-4.201 4.057v-3.724c0-.545-.334-1.036-.841-1.237-2.268-.904-3.323-3.086-3.323-6.867v-4.664c0-3.939 3.739-7.393 8-7.393zm4 1.333a.667.667 0 0 0 0 1.334c3.929 0 6.667 3.513 6.667 6.667a.667.667 0 0 0 1.334 0c0-3.784-3.285-8-8-8zm-6.664 1.347a1.221 1.221 0 0 0-.93.24l-.784.604a2.415 2.415 0 0 0-.698 3.005c.984 1.956 2.633 4.97 4.023 6.253 1.709 1.579 4.395 3.45 6.654 4.37a2.476 2.476 0 0 0 2.813-.69c.247-.288.477-.581.677-.846a1.213 1.213 0 0 0-.263-1.714l-2.495-1.794a1.23 1.23 0 0 0-1.688.242l-.419.464c-.277.307-.695.468-1.102.385-.635-.128-1.641-.542-2.802-1.786-.959-1.024-1.497-2.114-1.693-2.872a1.204 1.204 0 0 1 .406-1.227l.419-.349a1.21 1.21 0 0 0 .219-1.633l-1.521-2.148c-.2-.283-.5-.455-.818-.503zm6.664 1.32a.667.667 0 0 0 0 1.334c2.019 0 4 1.981 4 4a.667.667 0 0 0 1.334 0c0-2.741-2.592-5.333-5.333-5.333zm0 2.667a.667.667 0 0 0 0 1.334c.86 0 1.333.473 1.333 1.333a.667.667 0 0 0 1.334 0c0-1.595-1.072-2.667-2.667-2.667z"/></symbol><symbol id="icon-facebook" viewBox="0 0 32 32"><path d="M19 6h5V0h-5c-3.86 0-7 3.14-7 7v3H8v6h4v16h6V16h5l1-6h-6V7c0-.542.458-1 1-1z"/></symbol></defs></svg>