<svg xmlns="http://www.w3.org/2000/svg" aria-hidden="true" style="width:0;height:0;position:absolute;overflow:hidden"><defs><symbol id="burger-icon" viewBox="0 0 40 32"><path d="M3.158 0h33.684a3.158 3.158 0 0 1 0 6.316H3.158a3.158 3.158 0 0 1 0-6.316zM11.2 12.8h25.6a3.2 3.2 0 0 1 0 6.4H11.2a3.2 3.2 0 0 1 0-6.4zM3.158 25.263h33.684a3.158 3.158 0 0 1 0 6.316H3.158a3.158 3.158 0 0 1 0-6.316z"/></symbol><symbol id="close-icon" viewBox="0 0 32 32"><path d="M6.786 2.127 29.47 24.811a3.006 3.006 0 1 1-4.253 4.253L2.533 6.38a3.006 3.006 0 0 1 0-4.253 3.006 3.006 0 0 1 4.253 0z"/><path d="M2.531 24.811 25.215 2.127a3.008 3.008 0 0 1 4.253 4.253L6.784 29.064a3.006 3.006 0 0 1-4.253 0 3.006 3.006 0 0 1 0-4.253z"/></symbol><symbol id="phone-icon" viewBox="0 0 29 32"><path fill="#0EB5A1" d="M21.89 13.024c-1.995 5.96-7.494 10.094-9.994 11.417L9.34 20.27.508 24.054l1.686 7.782c21.654-1.99 26.283-21.208 25.89-30.569L21.043.151 18.22 9.933l3.67 3.09z" style="fill:var(--color1,#0eb5a1)"/></symbol><symbol id="icon-hero_table" viewBox="0 0 67 32"><path d="M63.729 2.322 15.748 2.08c-.509-.003-.924.505-.927 1.134s.407 1.14.915 1.143l47.797.242-.022 4.375-59.2-.299.022-4.375 7.719.039c.509.003.924-.505.927-1.134s-.407-1.14-.915-1.143l-7.903-.04c-.914-.005-1.663.911-1.668 2.04l-.024 4.83c-.006 1.13.733 2.053 1.648 2.057l1.299.007L5.33 28.05c-.006 1.13.733 2.053 1.648 2.057l3.162.016c.914.005 1.663-.911 1.668-2.041l.057-11.198.012-2.276.018-3.619 43.618.22-.018 3.619-.012 2.276-.058 11.426c-.006 1.13.733 2.053 1.648 2.057l3.162.016c.914.005 1.663-.911 1.669-2.041l.087-17.322 1.694.009c.914.005 1.663-.911 1.668-2.04l.025-4.83c.006-1.13-.734-2.053-1.648-2.057zM9.966 27.846l-2.794-.014.085-16.866 2.794.014-.085 16.866zm50.095.48-2.794-.014.086-17.094 2.794.014-.086 17.094z"/></symbol><symbol id="icon-hero_meat" viewBox="0 0 38 32"><path d="m33.715 14.166-.034-.194-.079.181a7.595 7.595 0 0 1-.877 1.511.578.578 0 0 1-.925-.691 6.44 6.44 0 0 0 1.187-4.947c-.279-1.587-1.199-2.847-2.742-3.775-1.541-.927-3.704-1.522-6.472-1.783-5.117-.482-10.677.347-12.829.725-5.045.887-8.427 5.713-7.54 10.757s5.713 8.427 10.757 7.54c2.391-.42 4.125-1.53 5.95-2.698l.004-.002c2.109-1.35 4.282-2.739 7.665-3.334.197-.035.393-.079.585-.131a.578.578 0 0 1 .305 1.113 7.67 7.67 0 0 1-.691.155c-3.157.555-5.237 1.886-7.241 3.168l-.002.001c-1.938 1.24-3.759 2.405-6.376 2.865-3.882.683-7.649-.884-9.96-3.76l-.104.051c1.143 4.718 5.787 7.807 10.634 6.955 2.391-.42 4.125-1.53 5.95-2.698l.004-.002c2.109-1.35 4.282-2.739 7.665-3.334a6.422 6.422 0 0 0 5.207-7.429l-.043-.243zM23.881 3.319c2.732.257 4.957.848 6.616 1.752 2.051 1.117 3.269 2.717 3.627 4.756l.771 4.383c.723 4.111-2.034 8.043-6.144 8.766-3.157.555-5.237 1.886-7.241 3.168l-.002.001c-1.938 1.24-3.759 2.405-6.376 2.865-5.671.997-11.097-2.806-12.094-8.477l-.771-4.383C1.27 10.479 5.073 5.053 10.744 4.056c2.2-.387 7.882-1.232 13.137-.737z"/><path d="M30.585 16.214zm.001 0a.577.577 0 0 1 .671.938m-.671-.938.672.939m-.001-.001a.575.575 0 0 1-.804-.122l.804.122zM9.601 12.324c-.273-1.552.898-3.069 2.624-3.373s3.344.723 3.617 2.275c.273 1.552-.898 3.069-2.624 3.373s-3.344-.723-3.617-2.275zm1.137-.2c.165.939 1.196 1.529 2.28 1.338s1.851-1.097 1.686-2.036c-.165-.939-1.196-1.529-2.28-1.338s-1.851 1.097-1.686 2.035z"/></symbol><symbol id="icon-hero_bottle" viewBox="0 0 21 32"><path d="M5.63 11.775a.353.353 0 0 0 .205-.449l-.041-.109a.353.353 0 0 0-.449-.205.353.353 0 0 0-.205.449l.041.109a.353.353 0 0 0 .449.205zM8.026 18.202a.353.353 0 0 0 .205-.449l-1.868-5.011a.353.353 0 0 0-.449-.205.353.353 0 0 0-.205.449l1.868 5.011a.353.353 0 0 0 .449.205z"/><path d="m12.273 31.259 7.625-2.842a1.515 1.515 0 0 0 .888-1.944L13.64 7.301a2.446 2.446 0 0 0-3.03-1.473l-.366-.983.218-.081a.348.348 0 0 0 .204-.449l-.65-1.743a1.512 1.512 0 0 0-1.944-.888L3.715 3.308a1.512 1.512 0 0 0-.888 1.944l.65 1.743a.353.353 0 0 0 .449.205l.218-.081.366.983a2.444 2.444 0 0 0-1.327 3.097l7.146 19.172a1.512 1.512 0 0 0 1.944.888zM3.481 5.009a.813.813 0 0 1 .479-1.046l4.357-1.624a.813.813 0 0 1 1.046.479l.528 1.416-5.882 2.192-.528-1.416zm6.109.08.365.98-4.793 1.787-.365-.98L9.59 5.089zm-5.753 5.866a1.745 1.745 0 0 1 1.025-2.243l5.882-2.193a1.745 1.745 0 0 1 2.243 1.025l1.816 4.873-4.814 1.795a.353.353 0 0 0-.205.449l.555 1.489a.353.353 0 0 0 .449.205.353.353 0 0 0 .205-.449l-.433-1.162 4.487-1.673 3.009 8.074-4.487 1.673-1.561-4.189a.353.353 0 0 0-.449-.205.353.353 0 0 0-.205.449l1.683 4.515a.353.353 0 0 0 .449.205l4.814-1.794 1.833 4.917a.813.813 0 0 1-.479 1.046l-7.625 2.842a.813.813 0 0 1-1.046-.479L3.837 10.954z"/></symbol><symbol id="icon-hero_carrot" viewBox="0 0 24 32"><path d="M11.671 3.637a2.724 2.724 0 0 0-1.636.683l-.099.088-.083-.103c-.777-.955-2.133-1.301-3.298-.756S4.786 5.356 5.021 6.565l.025.13-.131.019a2.729 2.729 0 0 0-1.574.818 2.733 2.733 0 0 0-.764 1.96c.015.734.316 1.417.846 1.925l8.247-7.781zm0 0c.733-.05 1.44.188 1.994.67l.083-.095m-2.077-.575 2.077.575m0 0-.083.095c.554.482.885 1.151.935 1.883.015.228-.041.686-.689 2.304a55.235 55.235 0 0 1-.669 1.589l-.057.129.135.042a4.866 4.866 0 0 1 2.962 2.585c.635 1.358 1.727 4.88 2.376 8.193.362 1.848.541 3.38.534 4.554-.005.793-.097 1.413-.272 1.873-.175.457-.429.749-.759.904s-.717.162-1.18.003c-.465-.16-1-.487-1.612-.992-.906-.747-1.967-1.866-3.153-3.329-2.127-2.622-4.13-5.718-4.765-7.075a4.862 4.862 0 0 1-.086-3.93l.054-.13m6.329-8.698L7.419 12.91m-.001 0-.135-.039a54.755 54.755 0 0 1-1.649-.505l-.039.12m1.823.424-1.823-.424m0 0 .039-.12m-.039.12.039-.12m-1.637-1.545a1.91 1.91 0 0 1-.591-1.345l.591 1.345zm0 0 .006.005m-.006-.005.006.005m0 0c.07.06.212.132.398.213.192.084.449.183.765.296a44.08 44.08 0 0 0 2.58.81l.086.025.052-.073c.171-.242.364-.47.579-.68l.086-.084-.08-.09c-1.445-1.636-2.532-2.896-3.031-3.67l-.037-.058h-.068a1.91 1.91 0 0 0-1.393.593m.063 2.718-.063-2.72m-.001-.001c-.355.37-.545.857-.534 1.37l.534-1.37zm1.695 4.261c-1.657-.54-2.045-.79-2.21-.948l2.21.948zm4.714-2.093.102-.033-.016-.106a99.918 99.918 0 0 0-.468-2.847 26.143 26.143 0 0 0-.256-1.246c-.084-.352-.168-.641-.249-.816A1.922 1.922 0 0 0 5.98 6.853c.079.17.239.408.448.687.21.281.475.611.77.965.589.708 1.301 1.517 1.936 2.235l.071.08.091-.056a4.99 4.99 0 0 1 1.055-.492zm3.497 14.177-.152.071.111.126c1.155 1.314 2.037 2.099 2.681 2.535.322.218.588.351.802.419.21.066.39.075.523.013.149-.07.268-.242.357-.494.091-.257.159-.623.185-1.119.053-.992-.06-2.527-.507-4.81-.635-3.243-1.693-6.675-2.314-8.002-.946-2.022-3.36-2.897-5.381-1.952s-2.897 3.36-1.951 5.381c.62 1.326 2.577 4.339 4.658 6.905l.218.267.062.076 1.87-.875a.413.413 0 1 1 .35.75l-1.514.708zm-.07-18.2-.001-.008c-.035-.507-.267-.975-.653-1.311s-.882-.503-1.394-.468a1.906 1.906 0 0 0-1.348.69l-.044.053.02.065c.286.915.573 2.646.886 4.678l.018.118.119-.012c.295-.029.59-.031.882-.007l.089.008.036-.082c.454-1.022.8-1.87 1.033-2.5.116-.315.204-.576.264-.778.057-.196.092-.351.092-.444z"/><path d="M11.162 14.747a.413.413 0 1 1 .351.749l-1.731.809a.413.413 0 1 1-.351-.75l1.731-.809zM12.654 18.403l2.769-1.295a.413.413 0 1 1 .351.75l-2.769 1.295a.413.413 0 1 1-.351-.749z"/></symbol><symbol id="icon-hero_fish" viewBox="0 0 32 32"><path d="M24.35 12.308c-.481 0-.857.397-.874.873-.017.465.33.874.811.874.46 0 .856-.385.874-.873s-.352-.874-.811-.874zM6.432 9.348c-.437 0-.778.363-.793.782s.3.783.737.783c.415 0 .767-.351.782-.782s-.311-.783-.726-.783z"/><path stroke-width=".384" d="M30.012 18.598v.002a.767.767 0 0 1-.115.486c-.121.194-.265.254-.567.379l-.012.005-.003.001c-3.521 1.537-7.911 1.194-11.618.422a40.553 40.553 0 0 1-6.475-1.944l-.033-.013c-1.052-.426-2.079-.555-3.07-.378s-1.932.658-2.813 1.431c-.972.848-1.622 1.843-1.94 2.371l-.058.096.052.095c1.085 1.979 2.701 3.043 4.817 3.126h.001a8.029 8.029 0 0 0 2.25-.263c.291-.075.529-.153.695-.213.083-.03.149-.056.195-.074l.055-.023.019-.009.007-.004a.623.623 0 0 1 .866.499c.313 2.118-.001 3.694-.895 4.742-1.014 1.178-2.418 1.233-2.632 1.232a.615.615 0 0 1-.334-.097c-.108-.069-1.457-.942-2.914-2.466-1.463-1.53-3.022-3.704-3.555-6.367-.62-3.099.042-6.615 2.444-9.812a.632.632 0 0 1 .977-.068.692.692 0 0 1 .027.889v.001c-1.752 2.35-2.27 4.646-2.342 6.346l-.023.553.361-.431c1.236-1.476 2.615-2.381 4.031-2.772s2.883-.27 4.303.329c.06.025 2.801 1.155 6.336 1.886l.352.073-.127-.334c-1.524-4.007-1.178-7.973 2.164-10.63l.296-.235-.355-.098c-1.542-.428-3.214-.531-4.844-.407-1.363.102-2.959.399-4.26.918h-.001c-.549.222-1.075.512-1.699.925l-.001.001c-.022.015-.042.027-.067.042l-.026.016c-.032.02-.069.043-.106.072a.611.611 0 0 1-.803-.084l-.002-.002c-.287-.3-.218-.807.131-1.046l.2-.135h.001c1.191-.791 2.214-1.268 3.9-1.647l.248-.056-.111-.222c-.469-.936-1.304-1.999-3.33-2.48l-.005-.001c-.625-.131-.685-1.07-.025-1.31 2.778-.983 5.55-1.003 7.794.705 1.267.963 2.014 2.238 2.413 3.108l.039.085.092.019c6.185 1.253 9.361 6.201 10.093 12.764zm-12.141-.276.045.121.18-.073.045-.188-.125-.026c-1.421-3.905-1.081-7.808 2.122-10.488l.127.034.057-.185-.116-.149-.11.088c-1.454-.37-3.019-.458-4.553-.34l2.326 11.205zM9.68 8.927c.617-.408 1.13-.691 1.663-.906l-1.663.906zm4.651-3.353.055.129.141-.019a17.07 17.07 0 0 1 3.315-.121l.399.025-.219-.327c-.928-1.387-2.63-2.88-5.539-2.636l-.522.044.414.304c1.123.823 1.638 1.853 1.956 2.602zM11.092 25.87l-.008-.235-.229.064c-1.758.489-3.616.495-5.249-.211l-.235.297a17.06 17.06 0 0 0 3.532 3.375l.061.042.075-.011c.318-.048.937-.207 1.406-.76l.001-.001c.48-.576.686-1.463.647-2.56zm8.842-7.06.042.088.097.014c2.678.389 5.823.465 8.446-.562l.148-.058-.023-.154c-.637-4.364-2.471-8.178-6.311-10.066l-.093-.046-.092.055c-1.611.972-2.677 2.233-3.152 3.774-.828 2.672.262 5.555.936 6.956z"/></symbol></defs></svg>