<svg xmlns="http://www.w3.org/2000/svg" aria-hidden="true" style="position:absolute;width:0;height:0;overflow:hidden">
  <defs>
    <symbol id="burger-icon" viewBox="0 0 40 32">
      <path d="M3.158 0h33.684a3.158 3.158 0 0 1 0 6.316H3.158a3.158 3.158 0 0 1 0-6.316zM11.2 12.8h25.6a3.2 3.2 0 0 1 0 6.4H11.2a3.2 3.2 0 0 1 0-6.4zM3.158 25.263h33.684a3.158 3.158 0 0 1 0 6.316H3.158a3.158 3.158 0 0 1 0-6.316z"/>
    </symbol>
    <symbol id="close-icon" viewBox="0 0 32 32">
      <path d="M6.786 2.127 29.47 24.811a3.006 3.006 0 1 1-4.253 4.253L2.533 6.38a3.006 3.006 0 0 1 0-4.253 3.006 3.006 0 0 1 4.253 0z"/>
      <path d="M2.531 24.811 25.215 2.127a3.008 3.008 0 0 1 4.253 4.253L6.784 29.064a3.006 3.006 0 0 1-4.253 0 3.006 3.006 0 0 1 0-4.253z"/>
    </symbol>
    <symbol id="phone-icon" viewBox="0 0 29 32">
      <path fill="#0EB5A1" d="M21.89 13.024c-1.995 5.96-7.494 10.094-9.994 11.417L9.34 20.27.508 24.054l1.686 7.782c21.654-1.99 26.283-21.208 25.89-30.569L21.043.151 18.22 9.933l3.67 3.09z" style="fill:var(--color1, #0EB5A1)"/>
    </symbol>
  </defs>
</svg>
