<svg xmlns="http://www.w3.org/2000/svg" aria-hidden="true" style="position:absolute;width:0;height:0;overflow:hidden">
  <defs>
    <symbol id="burger-icon" viewBox="0 0 40 32">
      <path d="M3.158 0h33.684a3.158 3.158 0 0 1 0 6.316H3.158a3.158 3.158 0 0 1 0-6.316zM11.2 12.8h25.6a3.2 3.2 0 0 1 0 6.4H11.2a3.2 3.2 0 0 1 0-6.4zM3.158 25.263h33.684a3.158 3.158 0 0 1 0 6.316H3.158a3.158 3.158 0 0 1 0-6.316z"/>
    </symbol>
    <symbol id="close-icon" viewBox="0 0 32 32">
      <path d="M6.786 2.127 29.47 24.811a3.006 3.006 0 1 1-4.253 4.253L2.533 6.38a3.006 3.006 0 0 1 0-4.253 3.006 3.006 0 0 1 4.253 0z"/>
      <path d="M2.531 24.811 25.215 2.127a3.008 3.008 0 0 1 4.253 4.253L6.784 29.064a3.006 3.006 0 0 1-4.253 0 3.006 3.006 0 0 1 0-4.253z"/>
    </symbol>
    <symbol id="phone-icon" viewBox="0 0 29 32">
      <path fill="#0EB5A1" d="M21.89 13.024c-1.995 5.96-7.494 10.094-9.994 11.417L9.34 20.27.508 24.054l1.686 7.782c21.654-1.99 26.283-21.208 25.89-30.569L21.043.151 18.22 9.933l3.67 3.09z" style="fill:var(--color1, #0EB5A1)"/>
    </symbol>
    <symbol id="icon-hero_table" viewBox="0 0 67 32">
<path d="M63.729 2.322l-47.981-0.242c-0.509-0.003-0.924 0.505-0.927 1.134s0.407 1.14 0.915 1.143l47.797 0.242-0.022 4.375-59.2-0.299 0.022-4.375 7.719 0.039c0.509 0.003 0.924-0.505 0.927-1.134s-0.407-1.14-0.915-1.143l-7.903-0.040c-0.914-0.005-1.663 0.911-1.668 2.040l-0.024 4.83c-0.006 1.13 0.733 2.053 1.648 2.057l1.299 0.007-0.086 17.094c-0.006 1.13 0.733 2.053 1.648 2.057l3.162 0.016c0.914 0.005 1.663-0.911 1.668-2.041 0 0 0.043-8.504 0.057-11.198s0.012-2.276 0.012-2.276c0.011-2.276 0.018-3.619 0.018-3.619l43.618 0.22c0 0-0.010 2.017-0.018 3.619s-0.008 1.603-0.012 2.276-0.058 11.426-0.058 11.426c-0.006 1.13 0.733 2.053 1.648 2.057l3.162 0.016c0.914 0.005 1.663-0.911 1.669-2.041l0.087-17.322 1.694 0.009c0.914 0.005 1.663-0.911 1.668-2.040l0.025-4.83c0.006-1.13-0.734-2.053-1.648-2.057zM9.966 27.846l-2.794-0.014 0.085-16.866 2.794 0.014-0.085 16.866zM60.061 28.326l-2.794-0.014 0.086-17.094 2.794 0.014-0.086 17.094z"></path>
</symbol>
<symbol id="icon-hero_meat" viewBox="0 0 38 32">
<path d="M33.715 14.166l-0.034-0.194-0.079 0.181c-0.232 0.532-0.525 1.040-0.877 1.511-0.191 0.255-0.553 0.308-0.808 0.117h-0c-0.255-0.191-0.308-0.553-0.117-0.808 1.058-1.416 1.49-3.219 1.187-4.947-0.279-1.587-1.199-2.847-2.742-3.775-1.541-0.927-3.704-1.522-6.472-1.783-5.117-0.482-10.677 0.347-12.829 0.725-5.045 0.887-8.427 5.713-7.54 10.757s5.713 8.427 10.757 7.54c2.391-0.42 4.125-1.53 5.95-2.698l0.004-0.002c2.109-1.35 4.282-2.739 7.665-3.334 0.197-0.035 0.393-0.079 0.585-0.131v0c0.307-0.084 0.625 0.097 0.709 0.404s-0.097 0.625-0.404 0.709c-0.226 0.062-0.459 0.114-0.691 0.155-3.157 0.555-5.237 1.886-7.241 3.168l-0.002 0.001c-1.938 1.24-3.759 2.405-6.376 2.865-3.882 0.683-7.649-0.884-9.96-3.76l-0.104 0.051c1.143 4.718 5.787 7.807 10.634 6.955 2.391-0.42 4.125-1.53 5.95-2.698l0.004-0.002c2.109-1.35 4.282-2.739 7.665-3.334 3.484-0.613 5.82-3.945 5.207-7.429l-0.043-0.243zM23.881 3.319c2.732 0.257 4.957 0.848 6.616 1.752 2.051 1.117 3.269 2.717 3.627 4.756l0.771 4.383c0.723 4.111-2.034 8.043-6.144 8.766-3.157 0.555-5.237 1.886-7.241 3.168l-0.002 0.001c-1.938 1.24-3.759 2.405-6.376 2.865-5.671 0.997-11.097-2.806-12.094-8.477l-0.771-4.383c-0.997-5.671 2.806-11.097 8.477-12.094 2.2-0.387 7.882-1.232 13.137-0.737z"></path>
<path d="M30.585 16.214v0 0zM30.585 16.214l0-0M30.585 16.214l0-0M30.586 16.214c0.261-0.184 0.621-0.121 0.804 0.139 0.182 0.258 0.122 0.614-0.133 0.799l-0 0M30.586 16.214l0.672 0.939M31.257 17.152c-0.074 0.054-0.156 0.088-0.24 0.103-0.209 0.037-0.43-0.043-0.564-0.225l0.804 0.122z"></path>
<path d="M9.601 12.324c-0.273-1.552 0.898-3.069 2.624-3.373s3.344 0.723 3.617 2.275c0.273 1.552-0.898 3.069-2.624 3.373s-3.344-0.723-3.617-2.275zM10.738 12.124c0.165 0.939 1.196 1.529 2.28 1.338s1.851-1.097 1.686-2.036c-0.165-0.939-1.196-1.529-2.28-1.338s-1.851 1.097-1.686 2.035z"></path>
</symbol>
<symbol id="icon-hero_bottle" viewBox="0 0 21 32">
<path d="M5.63 11.775c0.087-0.032 0.157-0.098 0.195-0.182s0.042-0.18 0.010-0.267l-0.041-0.109c-0.032-0.087-0.098-0.157-0.182-0.195s-0.18-0.042-0.267-0.010-0.157 0.098-0.195 0.182c-0.038 0.084-0.042 0.18-0.010 0.267l0.041 0.109c0.032 0.087 0.098 0.157 0.182 0.195s0.18 0.042 0.267 0.010z"></path>
<path d="M8.026 18.202c0.087-0.032 0.157-0.098 0.195-0.182s0.042-0.18 0.010-0.267l-1.868-5.011c-0.032-0.087-0.098-0.157-0.182-0.195s-0.18-0.042-0.267-0.010c-0.087 0.032-0.157 0.098-0.195 0.182s-0.042 0.18-0.010 0.267l1.868 5.011c0.032 0.087 0.098 0.157 0.182 0.195s0.18 0.042 0.267 0.010z"></path>
<path d="M12.273 31.259l7.625-2.842c0.375-0.14 0.679-0.424 0.846-0.788s0.182-0.78 0.042-1.156l-7.146-19.172c-0.22-0.587-0.657-1.068-1.221-1.342s-1.212-0.321-1.809-0.131l-0.366-0.983 0.218-0.081c0.087-0.032 0.157-0.098 0.195-0.182s0.042-0.18 0.009-0.267l-0.65-1.743c-0.14-0.375-0.424-0.68-0.788-0.846s-0.78-0.182-1.156-0.042l-4.357 1.624c-0.375 0.14-0.68 0.424-0.846 0.788s-0.182 0.78-0.042 1.156l0.65 1.743c0.032 0.087 0.098 0.157 0.182 0.195s0.18 0.042 0.267 0.010l0.218-0.081 0.366 0.983c-0.576 0.247-1.035 0.707-1.282 1.283s-0.263 1.226-0.045 1.814l7.146 19.172c0.14 0.375 0.424 0.68 0.788 0.846s0.78 0.182 1.156 0.042zM3.481 5.009c-0.075-0.202-0.067-0.426 0.023-0.622s0.254-0.349 0.456-0.424l4.357-1.624c0.202-0.075 0.426-0.067 0.622 0.023s0.349 0.254 0.424 0.456l0.528 1.416-5.882 2.192-0.528-1.416zM9.59 5.089l0.365 0.98-4.793 1.787-0.365-0.98 4.793-1.787zM3.837 10.955c-0.161-0.433-0.143-0.913 0.049-1.333s0.543-0.748 0.976-0.91l5.882-2.193c0.433-0.161 0.913-0.143 1.333 0.049s0.748 0.543 0.91 0.976l1.816 4.873-4.814 1.795c-0.087 0.032-0.157 0.098-0.195 0.182s-0.042 0.18-0.010 0.267l0.555 1.489c0.032 0.087 0.098 0.157 0.182 0.195s0.18 0.042 0.267 0.010c0.087-0.032 0.157-0.098 0.195-0.182s0.042-0.18 0.010-0.267l-0.433-1.162 4.487-1.673 3.009 8.074-4.487 1.673-1.561-4.189c-0.032-0.087-0.098-0.157-0.182-0.195s-0.18-0.042-0.267-0.010c-0.087 0.032-0.157 0.098-0.195 0.182s-0.042 0.18-0.010 0.267l1.683 4.515c0.032 0.087 0.098 0.157 0.182 0.195s0.18 0.042 0.267 0.010l4.814-1.794 1.833 4.917c0.075 0.202 0.067 0.426-0.023 0.622s-0.254 0.349-0.456 0.424l-7.625 2.842c-0.202 0.075-0.426 0.067-0.622-0.023s-0.349-0.254-0.424-0.456l-7.146-19.171z"></path>
</symbol>
<symbol id="icon-hero_carrot" viewBox="0 0 24 32">
<path d="M11.671 3.637v0c-0.619 0.042-1.188 0.284-1.636 0.683l-0.099 0.088-0.083-0.103c-0.777-0.955-2.133-1.301-3.298-0.756s-1.769 1.807-1.534 3.016l0.025 0.13-0.131 0.019c-0.594 0.088-1.144 0.37-1.574 0.818v0c-0.508 0.53-0.779 1.226-0.764 1.96v0c0.015 0.734 0.316 1.417 0.846 1.925l8.247-7.781zM11.671 3.637c0.733-0.050 1.44 0.188 1.994 0.67l0.083-0.095M11.671 3.637l2.077 0.575M13.748 4.212l-0.083 0.095c0.554 0.482 0.885 1.151 0.935 1.883 0.015 0.228-0.041 0.686-0.689 2.304-0.234 0.585-0.483 1.164-0.669 1.589l-0.057 0.129 0.135 0.042c1.261 0.395 2.359 1.297 2.962 2.585 0.635 1.358 1.727 4.88 2.376 8.193 0.362 1.848 0.541 3.38 0.534 4.554v0c-0.005 0.793-0.097 1.413-0.272 1.873-0.175 0.457-0.429 0.749-0.759 0.904s-0.717 0.162-1.18 0.003c-0.465-0.16-1-0.487-1.612-0.992v0c-0.906-0.747-1.967-1.866-3.153-3.329-2.127-2.622-4.13-5.718-4.765-7.075-0.603-1.288-0.591-2.709-0.086-3.93l0.054-0.13M13.748 4.212l-6.329 8.698M7.418 12.91l-0.135-0.039c-0.446-0.129-1.049-0.31-1.649-0.505l-0.039 0.12M7.418 12.91l-1.823-0.424M5.595 12.486l0.039-0.12M5.595 12.486l0.039-0.12M3.997 10.821l0-0c-0.37-0.355-0.58-0.833-0.591-1.345l0.591 1.345zM3.997 10.821l0.006 0.005M3.997 10.821l0.006 0.005M4.003 10.826c0.070 0.060 0.212 0.132 0.398 0.213 0.192 0.084 0.449 0.183 0.765 0.296 0.632 0.225 1.505 0.503 2.58 0.81l0.086 0.025 0.052-0.073c0.171-0.242 0.364-0.47 0.579-0.68l0.086-0.084-0.080-0.090c-1.445-1.636-2.532-2.896-3.031-3.67l-0.037-0.058-0.068-0c-0.525-0.002-1.024 0.208-1.393 0.593h-0M4.003 10.826l-0.063-2.72M3.939 8.105c-0.355 0.37-0.545 0.857-0.534 1.37l0.534-1.37zM5.634 12.366c-1.657-0.54-2.045-0.79-2.21-0.948l2.21 0.948zM10.348 10.273l0.102-0.033-0.016-0.106c-0.132-0.864-0.298-1.923-0.468-2.847-0.085-0.462-0.172-0.891-0.256-1.246-0.084-0.352-0.168-0.641-0.249-0.816-0.449-0.959-1.594-1.374-2.554-0.925s-1.376 1.594-0.927 2.553c0.079 0.17 0.239 0.408 0.448 0.687 0.21 0.281 0.475 0.611 0.77 0.965 0.589 0.708 1.301 1.517 1.936 2.235l0.071 0.080 0.091-0.056c0.162-0.1 0.331-0.192 0.507-0.275 0.18-0.084 0.363-0.156 0.548-0.217zM13.845 24.45l-0.152 0.071 0.111 0.126c1.155 1.314 2.037 2.099 2.681 2.535 0.322 0.218 0.588 0.351 0.802 0.419 0.21 0.066 0.39 0.075 0.523 0.013 0.149-0.070 0.268-0.242 0.357-0.494 0.091-0.257 0.159-0.623 0.185-1.119 0.053-0.992-0.060-2.527-0.507-4.81-0.635-3.243-1.693-6.675-2.314-8.002-0.946-2.022-3.36-2.897-5.381-1.952s-2.897 3.36-1.951 5.381c0.62 1.326 2.577 4.339 4.658 6.905 0.074 0.091 0.146 0.18 0.218 0.267l0.062 0.076 1.87-0.875c0.207-0.097 0.453-0.008 0.55 0.2s0.008 0.453-0.2 0.55l-1.514 0.708zM13.775 6.25h0l-0.001-0.008c-0.035-0.507-0.267-0.975-0.653-1.311s-0.882-0.503-1.394-0.468c-0.532 0.036-1.013 0.285-1.348 0.69l-0.044 0.053 0.020 0.065c0.286 0.915 0.573 2.646 0.886 4.678l0.018 0.118 0.119-0.012c0.295-0.029 0.59-0.031 0.882-0.007l0.089 0.008 0.036-0.082c0.454-1.022 0.8-1.87 1.033-2.5 0.116-0.315 0.204-0.576 0.264-0.778 0.057-0.196 0.092-0.351 0.092-0.444z"></path>
<path d="M11.162 14.747c0.207-0.097 0.453-0.008 0.55 0.199s0.008 0.453-0.199 0.55l-1.731 0.809c-0.207 0.097-0.453 0.008-0.55-0.2s-0.008-0.453 0.199-0.55l1.731-0.809z"></path>
<path d="M12.654 18.403l2.769-1.295c0.207-0.097 0.453-0.008 0.55 0.2s0.008 0.453-0.199 0.55l-2.769 1.295c-0.207 0.097-0.453 0.008-0.55-0.199s-0.008-0.453 0.199-0.55z"></path>
</symbol>
<symbol id="icon-hero_fish" viewBox="0 0 32 32">
<path d="M24.35 12.308c-0.481-0-0.857 0.397-0.874 0.873-0.017 0.465 0.33 0.874 0.811 0.874 0.46 0 0.856-0.385 0.874-0.873s-0.352-0.874-0.811-0.874z"></path>
<path d="M6.432 9.348c-0.437-0-0.778 0.363-0.793 0.782s0.3 0.783 0.737 0.783c0.415 0 0.767-0.351 0.782-0.782s-0.311-0.783-0.726-0.783z"></path>
<path stroke-linejoin="miter" stroke-linecap="butt" stroke-miterlimit="4" stroke-width="0.384" d="M30.012 18.598l0 0.002c0.019 0.156-0.019 0.327-0.115 0.486-0.121 0.194-0.265 0.254-0.567 0.379l-0.012 0.005h-0l-0.003 0.001c-3.521 1.537-7.911 1.194-11.618 0.422-3.452-0.728-6.11-1.797-6.475-1.944-0.015-0.006-0.026-0.011-0.033-0.013-1.052-0.426-2.079-0.555-3.070-0.378s-1.932 0.658-2.813 1.431c-0.972 0.848-1.622 1.843-1.94 2.371l-0.058 0.096 0.052 0.095c1.085 1.979 2.701 3.043 4.817 3.126h0.001c0.871 0.030 1.669-0.113 2.25-0.263 0.291-0.075 0.529-0.153 0.695-0.213 0.083-0.030 0.149-0.056 0.195-0.074 0.023-0.009 0.042-0.017 0.055-0.023l0.019-0.009c0.002-0.001 0.004-0.002 0.007-0.004 0.374-0.164 0.804 0.070 0.866 0.499l0 0c0.313 2.118-0.001 3.694-0.895 4.742-1.014 1.178-2.418 1.233-2.632 1.232-0.125 0-0.232-0.034-0.334-0.097-0.108-0.069-1.457-0.942-2.914-2.466-1.463-1.53-3.022-3.704-3.555-6.367-0.62-3.099 0.042-6.615 2.444-9.812l0-0c0.247-0.33 0.708-0.358 0.977-0.068 0.221 0.239 0.236 0.612 0.027 0.889l-0 0.001c-1.752 2.35-2.27 4.646-2.342 6.346l-0.023 0.553 0.361-0.431c1.236-1.476 2.615-2.381 4.031-2.772s2.883-0.27 4.303 0.329c0.060 0.025 2.801 1.155 6.336 1.886l0.352 0.073-0.127-0.334c-1.524-4.007-1.178-7.973 2.164-10.63l0.296-0.235-0.355-0.098c-1.542-0.428-3.214-0.531-4.844-0.407-1.363 0.102-2.959 0.399-4.26 0.918l-0.001 0c-0.549 0.222-1.075 0.512-1.699 0.925v0l-0.001 0.001c-0.022 0.015-0.042 0.027-0.067 0.042-0.008 0.005-0.017 0.010-0.026 0.016-0.032 0.020-0.069 0.043-0.106 0.072-0.254 0.176-0.592 0.144-0.803-0.084v0l-0.002-0.002c-0.287-0.3-0.218-0.807 0.131-1.046 0-0 0-0 0-0l0.2-0.135c0-0 0-0 0.001-0 1.191-0.791 2.214-1.268 3.9-1.647l0.248-0.056-0.111-0.222c-0.469-0.936-1.304-1.999-3.33-2.48v-0l-0.005-0.001c-0.625-0.131-0.685-1.070-0.025-1.31 2.778-0.983 5.55-1.003 7.794 0.705l0 0c1.267 0.963 2.014 2.238 2.413 3.108l0.039 0.085 0.092 0.019c6.185 1.253 9.361 6.201 10.093 12.764zM17.871 18.322c0.015 0.040 0.030 0.081 0.045 0.121l0.18-0.073 0.045-0.188c-0.042-0.009-0.083-0.017-0.125-0.026-1.421-3.905-1.081-7.808 2.122-10.488 0.043 0.011 0.085 0.023 0.127 0.034l0.057-0.185-0.116-0.149c-0.037 0.029-0.073 0.059-0.11 0.088-1.454-0.37-3.019-0.458-4.553-0.34l2.326 11.205zM9.68 8.927c0.617-0.408 1.13-0.691 1.663-0.906l-1.663 0.906zM14.331 5.574l0.055 0.129 0.141-0.019c0.914-0.123 2.063-0.2 3.315-0.121l0.399 0.025-0.219-0.327c-0.928-1.387-2.63-2.88-5.539-2.636l-0.522 0.044 0.414 0.304c1.123 0.823 1.638 1.853 1.956 2.602zM11.092 25.87l-0.008-0.235-0.229 0.064c-1.758 0.489-3.616 0.495-5.249-0.211l-0.235 0.297c1.375 1.779 2.968 2.983 3.532 3.375l0.061 0.042 0.075-0.011c0.318-0.048 0.937-0.207 1.406-0.76l0.001-0.001c0.48-0.576 0.686-1.463 0.647-2.56zM19.934 18.81l0.042 0.088 0.097 0.014c2.678 0.389 5.823 0.465 8.446-0.562l0.148-0.058-0.023-0.154c-0.637-4.364-2.471-8.178-6.311-10.066l-0.093-0.046-0.092 0.055c-1.611 0.972-2.677 2.233-3.152 3.774-0.828 2.672 0.262 5.555 0.936 6.956z"></path>
</symbol>
<symbol id="icon-hero_arrow_next" viewBox="0 0 18 32"><path  d="M17.414 17.414a2 2 0 0 0 0-2.828L4.686 1.858a2 2 0 1 0-2.828 2.828L13.172 16 1.858 27.314a2 2 0 1 0 2.828 2.828l12.728-12.728zM14 18h2v-4h-2v4z"/></symbol><symbol id="icon-hero_arrow_prev" viewBox="0 0 18 32"><path d="M.586 14.586a2 2 0 0 0 0 2.828l12.728 12.728a2 2 0 1 0 2.828-2.828L4.828 16 16.142 4.686a2 2 0 1 0-2.828-2.828L.586 14.586zM4 14H2v4h2v-4z"/></symbol>
  </defs>
</svg>
